<?xml version="1.0" encoding="iso-8859-1"?>
<!-- Generator: Adobe Illustrator 17.0.0, SVG Export Plug-In . SVG Version: 6.00 Build 0)  -->
<!DOCTYPE svg PUBLIC "-//W3C//DTD SVG 1.1//EN" "http://www.w3.org/Graphics/SVG/1.1/DTD/svg11.dtd">
<svg version="1.1" id="_x34_0_x5F_automated_x5F_robotic_x5F_arm"
	 xmlns="http://www.w3.org/2000/svg" xmlns:xlink="http://www.w3.org/1999/xlink" x="0px" y="0px" width="64px" height="60px"
	 viewBox="0 0 64 60" style="enable-background:new 0 0 64 60;" xml:space="preserve">
<g>
	<line style="fill:none;stroke:#222829;stroke-width:2;stroke-miterlimit:10;" x1="0" y1="59" x2="64" y2="59"/>
	<line style="fill:none;stroke:#222829;stroke-width:2;stroke-miterlimit:10;" x1="0" y1="55" x2="64" y2="55"/>
	<polyline style="fill:none;stroke:#222829;stroke-width:2;stroke-miterlimit:10;" points="5,55 5,45 35,45 35,55 	"/>
	<line style="fill:none;stroke:#222829;stroke-width:2;stroke-miterlimit:10;" x1="14" y1="51" x2="35" y2="51"/>
	<circle style="fill:none;stroke:#222829;stroke-width:2;stroke-miterlimit:10;" cx="20" cy="34" r="7"/>
	<line style="fill:none;stroke:#222829;stroke-width:2;stroke-miterlimit:10;" x1="27" y1="34" x2="27" y2="45"/>
	<line style="fill:none;stroke:#222829;stroke-width:2;stroke-miterlimit:10;" x1="13" y1="35" x2="8" y2="45"/>
	<line style="fill:none;stroke:#222829;stroke-width:2;stroke-miterlimit:10;" x1="12" y1="51" x2="10" y2="51"/>
	<circle style="fill:none;stroke:#222829;stroke-width:2;stroke-miterlimit:10;" cx="20" cy="34" r="3"/>
	<circle style="fill:none;stroke:#222829;stroke-width:2;stroke-miterlimit:10;" cx="11" cy="7" r="1"/>
	<line style="fill:none;stroke:#222829;stroke-width:2;stroke-miterlimit:10;" x1="25" y1="29" x2="16" y2="11"/>
	<line style="fill:none;stroke:#222829;stroke-width:2;stroke-miterlimit:10;" x1="13" y1="33" x2="8" y2="12"/>
	<polyline style="fill:none;stroke:#222829;stroke-width:2;stroke-miterlimit:10;" points="51,25 47,21 50,18 50,11 	"/>
	<polyline style="fill:none;stroke:#222829;stroke-width:2;stroke-miterlimit:10;" points="56,11 56,18 59,21 55,25 	"/>
	<polyline style="fill:none;stroke:#222829;stroke-width:2;stroke-miterlimit:10;" points="15,3 42,3 42,11 16,11 	"/>
	<circle style="fill:none;stroke:#222829;stroke-width:2;stroke-miterlimit:10;" cx="53" cy="7" r="5"/>
	<circle style="fill:none;stroke:#222829;stroke-width:2;stroke-miterlimit:10;" cx="53" cy="7" r="1"/>
	<line style="fill:none;stroke:#222829;stroke-width:2;stroke-miterlimit:10;" x1="42" y1="5" x2="48" y2="5"/>
	<line style="fill:none;stroke:#222829;stroke-width:2;stroke-miterlimit:10;" x1="42" y1="9" x2="48" y2="9"/>
	<line style="fill:none;stroke:#222829;stroke-width:2;stroke-miterlimit:10;" x1="42" y1="7" x2="17" y2="7"/>
	<circle style="fill:none;stroke:#222829;stroke-width:2;stroke-miterlimit:10;" cx="11" cy="7" r="6"/>
	<rect x="41" y="39" style="fill:none;stroke:#222829;stroke-width:2;stroke-miterlimit:10;" width="16" height="4"/>
	<line style="fill:none;stroke:#222829;stroke-width:2;stroke-miterlimit:10;" x1="58" y1="47" x2="56" y2="47"/>
	<line style="fill:none;stroke:#222829;stroke-width:2;stroke-miterlimit:10;" x1="42" y1="51" x2="40" y2="51"/>
	<polyline style="fill:none;stroke:#222829;stroke-width:2;stroke-miterlimit:10;" points="61,55 61,35 30,35 	"/>
	<line style="fill:none;stroke:#222829;stroke-width:2;stroke-miterlimit:10;" x1="30" y1="39" x2="38" y2="39"/>
	<polyline style="fill:none;stroke:#222829;stroke-width:2;stroke-miterlimit:10;" points="58,51 53,51 53,47 49,47 49,51 45,51 
		45,47 40,47 	"/>
	<line style="fill:none;stroke:#222829;stroke-width:2;stroke-miterlimit:10;" x1="56" y1="16" x2="50" y2="16"/>
</g>
</svg>
