<svg xmlns="http://www.w3.org/2000/svg" width="15.969" height="33" viewBox="0 0 15.969 33">
  <metadata><?xpacket begin="﻿" id="W5M0MpCehiHzreSzNTczkc9d"?>
<x:xmpmeta xmlns:x="adobe:ns:meta/" x:xmptk="Adobe XMP Core 5.6-c142 79.160924, 2017/07/13-01:06:39        ">
   <rdf:RDF xmlns:rdf="http://www.w3.org/1999/02/22-rdf-syntax-ns#">
      <rdf:Description rdf:about=""/>
   </rdf:RDF>
</x:xmpmeta>
                                                                                                    
                                                                                                    
                                                                                                    
                                                                                                    
                                                                                                    
                                                                                                    
                                                                                                    
                                                                                                    
                                                                                                    
                                                                                                    
                                                                                                    
                                                                                                    
                                                                                                    
                                                                                                    
                                                                                                    
                                                                                                    
                                                                                                    
                                                                                                    
                                                                                                    
                                                                                                    
                           
<?xpacket end="w"?></metadata>
<defs>
    <style>
      .cls-1 {
        fill: #2c2c2c;
        opacity: 0.4;
      }

      .cls-1, .cls-2 {
        fill-rule: evenodd;
      }

      .cls-2 {
        fill: #6b6b6b;
      }
    </style>
  </defs>
  <path id="Forma_1" data-name="Forma 1" class="cls-1" d="M21.1,9.195a0.623,0.623,0,0,0-.906,0,0.669,0.669,0,0,0,0,.921l1.594,2.715H8.634A0.64,0.64,0,0,0,8,13.483a0.647,0.647,0,0,0,.634.66H21.792L20.2,16.85a0.68,0.68,0,0,0,0,.93,0.623,0.623,0,0,0,.906,0l2.681-3.832a0.652,0.652,0,0,0,0-.921Z" transform="translate(-8 -9)"/>
  <path id="Forma_1-2" data-name="Forma 1" class="cls-2" d="M21,33.19A5.356,5.356,0,0,0,15.5,28,5.356,5.356,0,0,0,10,33.19a5.136,5.136,0,0,0,2.5,4.346v1.634A2.923,2.923,0,0,0,15.5,42a2.924,2.924,0,0,0,3-2.831V37.536A5.136,5.136,0,0,0,21,33.19Zm-3.558,5.979a1.945,1.945,0,0,1-3.884,0V38.752h3.884v0.418Zm0.266-2.347a0.5,0.5,0,0,0-.266.433v0.5H16.03V35.167a1.635,1.635,0,0,0,1.187-1.54,0.531,0.531,0,0,0-1.06,0,0.658,0.658,0,0,1-1.315,0,0.531,0.531,0,0,0-1.06,0,1.635,1.635,0,0,0,1.188,1.54v2.585H13.558v-0.5a0.5,0.5,0,0,0-.266-0.433A4.164,4.164,0,0,1,11.06,33.19,4.323,4.323,0,0,1,15.5,29a4.323,4.323,0,0,1,4.44,4.186A4.164,4.164,0,0,1,17.708,36.823Z" transform="translate(-8 -9)"/>
</svg>
